PathFileType	3	(X/Y/Z)	E:\ViconData\BIOM9541 2025\Week 7\Wed1100\Hanif high squat 5 Squat 01.trc
DataRate	CameraRate	NumFrames	NumMarkers	Units	OrigDataRate	OrigDataStartFrame	OrigNumFrames
200.0	200.0	20	19	mm	200.0	726	1450	
Frame#	Time	C7			CLAV			RBAK			LASI			RASI			LPSI			RPSI			LTHI			LKNE			LTIB			LANK			LHEE			LTOE			RTHI			RKNE			RTIB			RANK			RHEE			RTOE			
		X1	Y1	Z1	X2	Y2	Z2	X3	Y3	Z3	X4	Y4	Z4	X5	Y5	Z5	X6	Y6	Z6	X7	Y7	Z7	X8	Y8	Z8	X9	Y9	Z9	X10	Y10	Z10	X11	Y11	Z11	X12	Y12	Z12	X13	Y13	Z13	X14	Y14	Z14	X15	Y15	Z15	X16	Y16	Z16	X17	Y17	Z17	X18	Y18	Z18	X19	Y19	Z19	
726	3.625	312.85785	1063.0621	-1229.1041	175.35347	976.59564	-1223.5774	343.62845	976.68719	-1374.609	263.1496	626.97522	-1095.1132	258.2116	637.2217	-1358.0189	430.4819	689.7819	-1181.3746	430.5553	685.4847	-1255.171	171.05693	465.06799	-931.20581	91.40036	356.37347	-892.21533	207.81871	186.51103	-920.39294	297.89548	66.640945	-968.7287	323.19757	54.161575	-1034.3656	160.28694	38.422577	-949.85254	289.54282	561.7785	-1441.8019	105.31578	343.27274	-1540.6863	143.14117	267.85956	-1533.4766	291.43216	69.103813	-1435.0643	316.49258	53.807808	-1362.3779	162.45326	40.246063	-1463.2057	
727	3.63	313.13971	1064.9758	-1229.1714	175.48035	978.49359	-1223.5278	343.80786	978.55505	-1374.6312	262.9899	628.76562	-1095.1927	258.0998	639.0413	-1358.0933	430.326	691.6358	-1181.3214	430.2578	687.4898	-1255.0072	171.06085	465.71765	-931.21387	91.911591	356.79877	-892.55634	208.05792	186.71713	-920.56714	297.94766	66.709656	-968.59198	323.29465	54.28014	-1034.377	160.29047	38.463352	-949.82574	289.39853	563.13885	-1442.0367	105.81301	343.73953	-1540.4978	143.62405	268.31213	-1533.3302	291.48434	69.177956	-1435.0629	316.49969	53.823307	-1362.316	162.43411	40.367283	-1463.2987	
728	3.635	313.39743	1066.9166	-1229.2122	175.57784	980.54523	-1223.3914	344.10416	980.58691	-1374.699	262.81821	630.64557	-1095.3483	257.9708	640.8906	-1358.1582	430.1556	693.5505	-1181.3087	430.2209	689.196	-1255.3102	171.46663	466.69608	-931.61749	92.376236	357.27554	-892.95697	208.30304	186.95392	-920.70154	298.0072	66.725601	-968.53961	323.37802	54.277023	-1034.3916	160.29352	38.429989	-949.75842	289.32498	564.45685	-1442.1395	106.43427	344.27826	-1540.3568	144.13266	268.75211	-1533.157	291.53806	69.182785	-1435.0613	316.51263	53.788666	-1362.3213	162.45404	40.354237	-1463.3489	
729	3.64	313.66599	1068.9536	-1229.3115	175.81952	982.85956	-1223.605	344.39996	982.66418	-1374.7974	262.68195	632.59283	-1095.4308	257.8939	642.8281	-1358.3058	430.0236	695.5126	-1181.5089	430.0886	691.1652	-1255.4344	171.33328	467.3584	-931.45618	92.810158	357.72867	-893.36713	208.49533	187.20711	-920.84064	298.03604	66.626244	-968.56189	323.44049	54.226986	-1034.3979	160.33377	38.394173	-949.8111	289.24353	565.79962	-1442.2775	107.04519	344.74164	-1540.1991	144.67113	269.12958	-1532.9706	291.65848	69.136406	-1435.088	316.53452	53.675045	-1362.3413	162.47957	40.310162	-1463.3959	
730	3.645	313.90692	1071.0728	-1229.3643	176.05086	985.12396	-1223.8053	344.63498	984.84491	-1374.8735	262.55414	634.71265	-1095.6069	257.7966	644.797	-1358.4042	429.8393	697.5323	-1181.5725	429.9489	693.3312	-1255.4763	171.54453	468.22934	-931.72839	93.363159	358.33218	-893.8382	208.74612	187.50377	-920.99725	298.01242	66.55558	-968.68524	323.45795	54.171738	-1034.3929	160.33592	38.379864	-949.85095	289.13474	567.25732	-1442.4658	107.68478	345.22165	-1539.9647	145.21672	269.56833	-1532.8029	291.70264	69.073303	-1435.0961	316.59024	53.66188	-1362.4575	162.47704	40.304619	-1463.4612	
731	3.65	314.12561	1073.3416	-1229.4175	176.66165	987.08972	-1224.0979	344.81458	987.14038	-1374.9	262.34592	636.87262	-1095.5974	257.6501	646.9533	-1358.4872	429.6637	699.7114	-1181.6005	429.7982	695.3701	-1255.6195	171.79944	469.13934	-931.99011	93.880539	358.78317	-894.34821	208.98932	187.72766	-921.2146	298.01889	66.590576	-968.72467	323.43716	54.122612	-1034.3453	160.30229	38.422199	-949.90802	288.9902	568.80328	-1442.5593	108.23056	345.88263	-1539.715	145.7813	270.13058	-1532.5941	291.73581	69.131119	-1435.1129	316.58423	53.646168	-1362.4794	162.45612	40.348309	-1463.5009	
732	3.655	314.31241	1075.7087	-1229.3828	176.47523	989.87366	-1224.0101	344.94168	989.46094	-1374.9314	262.24957	639.08453	-1095.7601	257.5229	649.2278	-1358.5905	429.5112	701.994	-1181.6462	429.632	697.577	-1255.7113	172.46938	470.31491	-932.56213	94.45813	359.31497	-894.80444	209.27177	187.98361	-921.45215	298.0618	66.506439	-968.81604	323.42557	54.159233	-1034.322	160.28819	38.496754	-949.85516	288.87234	570.45905	-1442.6659	108.90283	346.53787	-1539.442	146.30412	270.69315	-1532.3669	291.77097	69.245232	-1435.1454	316.58466	53.661087	-1362.488	162.41827	40.415249	-1463.5231	
733	3.66	314.53214	1078.1624	-1229.4232	177.1478	992.53516	-1224.7612	345.21762	992.01184	-1375.0503	262.12766	641.42645	-1095.9764	257.4234	651.5089	-1358.7394	429.344	704.3958	-1181.7307	429.4268	699.8238	-1255.8093	172.41299	471.06583	-932.51947	95.059608	359.97983	-895.35522	209.57071	188.26556	-921.75653	298.12122	66.584381	-968.79022	323.54443	54.240009	-1034.4008	160.2811	38.572544	-949.90314	288.75623	572.14557	-1442.766	109.60939	347.24649	-1539.1898	146.95653	271.33624	-1532.1455	291.83209	69.305801	-1435.172	316.59116	53.689106	-1362.4996	162.40137	40.484913	-1463.6002	
734	3.665	314.73532	1080.6512	-1229.413	177.20169	994.94159	-1224.5642	345.36505	994.52856	-1375.0227	261.92157	643.84827	-1096.0083	257.2872	653.8214	-1358.776	429.2348	706.7847	-1181.8999	429.3883	702.4059	-1255.9061	173.1205	472.35339	-933.25879	95.667618	360.6102	-895.89246	209.8503	188.6526	-921.9776	298.12418	66.664398	-968.8996	323.56039	54.075787	-1034.3218	160.31049	38.553638	-949.91089	288.65646	573.75452	-1442.855	110.35274	347.84213	-1538.8397	147.57838	271.86362	-1531.861	291.95099	69.284081	-1435.2034	316.66675	53.603329	-1362.6451	162.42401	40.470024	-1463.6729	
735	3.67	314.9921	1083.1477	-1229.4811	176.79579	997.54205	-1224.115	345.61627	997.04218	-1375.0681	261.83551	646.35345	-1096.2906	257.1798	656.249	-1358.9696	429.1123	709.1384	-1182.2123	429.3109	704.9186	-1256.0364	173.00401	473.23529	-933.12457	96.32341	361.29657	-896.48041	210.15678	189.04034	-922.11572	298.03021	66.578819	-969.04126	323.6001	53.904976	-1034.252	160.35394	38.507339	-949.96771	288.53067	575.49799	-1442.9407	111.11339	348.47623	-1538.5171	148.30479	272.41296	-1531.6244	292.02258	69.192917	-1435.2667	316.77231	53.479481	-1362.8037	162.46338	40.402424	-1463.7239	
736	3.675	315.14386	1085.7327	-1229.4294	176.93462	1000.2972	-1224.2319	345.83154	999.67413	-1375.1017	261.59695	648.83282	-1096.1459	257.1088	658.7263	-1358.9141	429.0082	711.6963	-1182.3766	429.1121	707.3502	-1256.0885	173.35611	474.21564	-933.4375	96.978386	361.93286	-897.0672	210.46416	189.31046	-922.33154	298.01535	66.610497	-969.10175	324.32837	54.121731	-1034.3916	160.33942	38.494602	-949.96527	288.43274	577.26495	-1442.9614	111.91525	349.15698	-1538.0732	148.99124	272.96643	-1531.2881	292.09082	69.182037	-1435.2635	316.80783	53.41502	-1362.8571	162.48753	40.413551	-1463.78	
737	3.68	315.38596	1088.4093	-1229.4982	177.35228	1003.0525	-1224.6211	345.96185	1002.3052	-1375.0819	261.51755	651.40515	-1096.3108	256.9936	661.3146	-1359.0098	428.7895	714.3223	-1182.1232	428.9255	709.9515	-1256.0284	173.70659	475.26126	-933.72363	97.717957	362.48038	-897.68378	210.82375	189.5799	-922.5954	298.16534	66.956886	-968.49341	324.33823	54.154942	-1034.3772	160.36311	38.530972	-949.92377	288.34732	579.12366	-1443.0994	112.69182	349.94907	-1537.6788	149.67775	273.68939	-1530.9442	292.17456	69.245224	-1435.2761	316.83398	53.393475	-1362.8506	162.52534	40.459042	-1463.7865	
738	3.685	315.61566	1091.1631	-1229.506	177.20084	1005.9232	-1224.4006	346.16278	1005.1176	-1375.1611	261.42368	653.92316	-1096.528	256.8506	664.0002	-1359.0216	428.5956	716.946	-1181.8229	428.6721	712.601	-1255.9305	174.08113	476.33362	-933.99103	98.452049	363.17834	-898.22162	211.26843	189.93214	-922.81927	298.20798	66.927124	-968.45807	324.39523	54.197598	-1034.3342	160.36824	38.566509	-949.84583	288.23645	581.052	-1443.0862	113.53095	350.75876	-1537.2458	150.43365	274.3978	-1530.5702	292.20956	69.351944	-1435.2874	316.87097	53.380516	-1362.8134	162.53174	40.540298	-1463.8291	
739	3.69	315.76883	1093.9192	-1229.4431	177.34616	1008.7548	-1224.4697	346.36279	1007.969	-1375.1353	261.19763	656.71625	-1096.4723	256.7686	666.6624	-1359.0709	428.4288	719.7393	-1182.0062	428.3045	715.4986	-1255.6331	174.48576	477.52887	-934.30212	99.300491	363.87817	-898.90576	211.63876	190.33215	-923.08472	298.07812	66.850685	-968.68011	324.46368	54.119789	-1034.2823	160.35602	38.584103	-949.87781	288.17862	582.96454	-1443.1089	114.46973	351.53394	-1536.8064	151.19592	275.09348	-1530.1658	292.30908	69.369598	-1435.2811	316.91422	53.326385	-1362.833	162.56319	40.563026	-1463.8745	
740	3.695	316.05576	1096.7709	-1229.5439	177.92566	1011.8057	-1225.0686	346.58572	1010.812	-1375.1848	261.04074	659.41241	-1096.5254	256.5961	669.3975	-1359.1029	428.299	722.4598	-1182.2374	428.5102	718.1126	-1256.1809	174.90158	478.79831	-934.67365	100.02586	364.66174	-899.54547	211.98555	190.69931	-923.34564	298.10712	66.879288	-968.85559	324.55334	54.069767	-1034.3137	160.39853	38.551079	-949.96442	288.13388	584.93317	-1443.1998	115.41695	352.29767	-1536.3641	152.04323	275.6987	-1529.7959	292.4136	69.282791	-1435.2985	317.05426	53.247654	-1362.9698	162.60812	40.50584	-1463.9248	
741	3.7	316.32074	1099.7317	-1229.5863	177.66672	1014.8214	-1224.7966	346.87119	1013.7354	-1375.2216	260.86661	662.27307	-1096.6472	256.5179	672.0716	-1359.1124	428.1302	725.2743	-1182.4767	428.1239	721.3289	-1255.8101	175.33165	480.0126	-934.96564	100.93056	365.53549	-900.21387	212.4259	191.10451	-923.62659	298.11563	66.865242	-968.99164	324.62988	53.932507	-1034.2462	160.4183	38.511215	-950.0033	288.09055	586.90851	-1443.1935	116.42178	353.03613	-1535.8783	152.89847	276.37164	-1529.4346	292.50833	69.212074	-1435.2871	317.12479	53.203926	-1363.0804	162.65706	40.480072	-1463.9706	
742	3.705	316.49503	1102.6451	-1229.5406	178.21434	1017.6008	-1225.0948	347.00327	1016.6938	-1375.2031	260.59619	665.12482	-1096.5575	256.3106	674.9656	-1359.1384	427.9146	728.2118	-1182.4932	428.158	723.8973	-1256.2695	175.77905	481.2912	-935.2453	101.77332	366.28149	-900.79242	212.87901	191.57332	-923.8689	298.33679	66.970818	-968.93292	324.70883	53.900124	-1034.2166	160.41437	38.54034	-950.01062	287.98495	589.00848	-1443.1907	117.38655	353.91275	-1535.3617	153.72577	277.09805	-1529.0366	292.56747	69.261513	-1435.285	317.15698	53.15897	-1363.1461	162.65166	40.49292	-1464.0016	
743	3.71	316.78995	1105.6666	-1229.6003	178.37236	1020.8412	-1225.2423	347.26974	1019.7261	-1375.2101	260.47638	667.99078	-1096.764	256.1597	677.874	-1359.1992	427.6514	731.1394	-1182.2822	427.8947	726.8202	-1256.1924	176.26877	482.5545	-935.56659	102.69619	367.03769	-901.401	213.36588	191.93799	-924.15735	298.38504	66.998421	-968.92145	324.77328	53.949043	-1034.2196	160.4059	38.595806	-949.9549	287.9158	591.15942	-1443.2174	118.34528	354.86774	-1534.8164	154.60902	277.91748	-1528.6569	292.65244	69.405121	-1435.3049	317.17651	53.144726	-1363.0795	162.62918	40.585857	-1464.0587	
744	3.715	317.01538	1108.6729	-1229.5319	178.16467	1024.2783	-1225.0403	347.5278	1022.7572	-1375.1885	260.18616	670.91473	-1096.6259	256.001	680.7683	-1359.1003	427.4195	734.2089	-1182.201	427.6507	729.8093	-1256.127	176.74283	483.79236	-935.91394	103.6578	367.80798	-902.02087	213.84459	192.2103	-924.46497	298.24368	67.291046	-968.42395	324.8985	53.95079	-1034.177	160.42795	38.586151	-949.92169	287.87488	593.31732	-1443.1278	119.43109	355.83936	-1534.3433	155.49779	278.75385	-1528.2654	292.71527	69.463287	-1435.2897	317.22571	53.034126	-1363.1122	162.62791	40.630177	-1464.106	
745	3.72	317.26431	1111.7775	-1229.4692	178.22333	1027.4825	-1224.9778	347.74002	1025.8	-1375.1488	259.95853	673.86798	-1096.7722	255.8126	683.7521	-1359.1925	427.1583	737.1398	-1182.0653	427.4741	732.8878	-1256.1115	177.2448	485.12027	-936.24371	104.61203	368.63666	-902.70801	214.37549	192.69278	-924.70593	298.39413	67.382759	-968.2901	324.98715	53.984535	-1034.2357	160.46867	38.591755	-949.95416	287.853	595.44427	-1443.1698	120.50323	356.70108	-1533.7909	156.44742	279.50235	-1527.8408	292.8093	69.478073	-1435.3009	317.29022	52.957405	-1363.1934	162.62537	40.619427	-1464.1735	
